<?xml version="1.0" encoding="UTF-8" standalone="no"?>
<svg
   xmlns:dc="http://purl.org/dc/elements/1.1/"
   xmlns:cc="http://creativecommons.org/ns#"
   xmlns:rdf="http://www.w3.org/1999/02/22-rdf-syntax-ns#"
   xmlns:svg="http://www.w3.org/2000/svg"
   xmlns="http://www.w3.org/2000/svg"
   xmlns:sodipodi="http://sodipodi.sourceforge.net/DTD/sodipodi-0.dtd"
   xmlns:inkscape="http://www.inkscape.org/namespaces/inkscape"
   inkscape:version="1.0 (4035a4fb49, 2020-05-01)"
   sodipodi:docname="codelab.svg"
   viewBox="0 0 2056.7466 1971.64"
   height="1971.64"
   width="2056.7466"
   xml:space="preserve"
   id="svg10"
   version="1.1"><metadata
     id="metadata16"><rdf:RDF><cc:Work
         rdf:about=""><dc:format>image/svg+xml</dc:format><dc:type
           rdf:resource="http://purl.org/dc/dcmitype/StillImage" /><dc:title></dc:title></cc:Work></rdf:RDF></metadata><defs
     id="defs14"><clipPath
       id="clipPath26"
       clipPathUnits="userSpaceOnUse"><path
         id="path24"
         d="M 0,1478.732 H 1542.559 V 0 H 0 Z" /></clipPath></defs><sodipodi:namedview
     inkscape:current-layer="g18"
     inkscape:window-maximized="1"
     inkscape:window-y="-6"
     inkscape:window-x="2553"
     inkscape:cy="836.16991"
     inkscape:cx="1028.3733"
     inkscape:zoom="0.26729017"
     showgrid="false"
     id="namedview12"
     inkscape:window-height="1018"
     inkscape:window-width="1920"
     inkscape:pageshadow="2"
     inkscape:pageopacity="0"
     guidetolerance="10"
     gridtolerance="10"
     objecttolerance="10"
     borderopacity="1"
     bordercolor="#666666"
     pagecolor="#ffffff" /><g
     transform="matrix(1.3333333,0,0,-1.3333333,0,1971.64)"
     inkscape:label="codelab"
     inkscape:groupmode="layer"
     id="g18"><g
       id="g20"><g
         clip-path="url(#clipPath26)"
         id="g22"><g
           transform="translate(838.502,540.7538)"
           id="g28"><path
             id="path30"
             style="fill:#ffb81e;fill-opacity:1;fill-rule:evenodd;stroke:none"
             d="M 0,0 C -117.026,78.912 -146.356,167.331 -87.993,265.257 -0.446,412.146 45.228,466.947 30.578,542.94 88.276,476.189 254.445,294.391 75.942,83.402 75.942,165.326 57.156,211.669 19.583,222.43 -6.254,191.552 -19.172,152.078 -19.172,104.005 -19.172,55.934 -12.781,21.265 0,0" /></g><g
           transform="translate(388.9155,465.6849)"
           id="g32"><path
             id="path34"
             style="fill:#3b3f44;fill-opacity:1;fill-rule:evenodd;stroke:none"
             d="M 0,0 C 3.261,19.523 11.56,34.542 24.602,46.255 40.904,60.973 61.949,82.599 84.476,72.387 88.032,70.885 90.404,66.98 88.329,60.672 82.104,42.351 65.505,43.552 51.278,33.04 39.422,23.729 29.048,11.714 28.159,-3.003 c -0.593,-8.411 0.889,-19.824 6.224,-27.934 6.224,-9.912 16.895,-11.113 27.269,-15.018 15.71,-6.007 26.084,15.619 39.126,16.219 13.042,0.902 4.743,-18.021 1.778,-22.827 C 87.736,-75.69 60.17,-72.387 37.347,-65.779 9.781,-57.669 -4.743,-29.736 0,0 m 138.603,-54.012 c -20.156,12.015 -28.752,37.245 -22.231,60.072 4.743,16.82 15.413,25.531 18.97,33.941 7.114,16.219 27.862,11.414 39.125,-1.202 7.707,-9.01 11.857,-19.223 14.524,-29.435 6.225,-23.728 -4.742,-43.852 -20.451,-60.673 -6.521,-6.908 -21.935,-7.208 -29.937,-2.703 m 9.484,29.736 c 21.342,-4.806 23.416,24.028 7.411,41.75 -6.521,6.908 -38.533,-34.541 -7.411,-41.75 m 67.729,20.725 c 0,37.545 45.646,43.251 68.47,61.874 7.113,6.007 4.15,21.626 8.595,31.838 4.15,7.209 12.746,13.215 19.86,10.212 2.964,-1.502 9.781,-6.007 8.595,-11.714 -17.191,-47.457 -15.709,-99.419 -7.113,-150.18 0,-2.703 -7.114,-7.208 -11.56,-7.208 -12.746,-1.502 -12.746,17.42 -19.859,18.922 -11.56,0 -23.12,-3.303 -34.087,4.205 -14.524,9.912 -32.901,20.124 -32.901,42.051 m 29.937,4.205 c 2.075,-14.418 18.377,-28.835 34.086,-23.128 -2.667,17.421 2.965,33.34 2.965,50.46 -15.71,0 -40.015,-8.71 -37.051,-27.332 m 95.591,13.216 c -0.593,29.735 21.045,51.361 50.092,47.156 23.12,-3.304 44.165,-25.831 43.868,-51.061 -4.742,-14.417 -37.94,-26.732 -49.203,-37.545 -1.186,-0.3 -6.521,-3.304 -4.743,-6.308 10.374,-18.321 29.345,-10.212 45.943,-1.501 10.671,-7.81 5.039,-25.831 -7.114,-27.633 -13.338,-2.103 -27.862,-5.707 -42.089,0.6 -29.64,13.516 -36.161,47.457 -36.754,76.292 m 32.308,-15.319 c 13.931,0.601 27.566,4.506 32.012,18.923 6.521,15.018 -18.081,22.827 -29.937,16.52 -13.042,-6.909 -9.189,-34.842 -2.075,-35.443 m 224.042,-65.575 c -5.357,2.759 -6.437,10.196 -10.564,9.762 -21.337,1.683 -44.794,-1.99 -58.689,16.784 -9.089,9.917 -8.076,31.467 -1.742,42.099 20.455,35.07 63.087,29.282 63.582,30.24 2.213,4.461 2.569,18.089 -4.042,18.602 -17.8,2.056 -27.859,-7.156 -42.917,-14.175 -11.352,-5.421 -16.548,18.496 -14.177,21.463 19.685,16.868 62.729,29.848 78.945,3.163 14.46,-24.151 2.979,-51.029 3.835,-79.026 0.737,-18.346 3.143,-58.261 -14.231,-48.912 m -12.689,33.737 c 2.668,15.318 10.374,25.531 3.853,41.45 -17.191,-6.608 -47.128,-1.502 -47.721,-27.333 -0.296,-13.216 41.497,-19.824 43.868,-14.117 m 84.311,-29.135 c -2.964,0.601 -6.225,6.308 -7.707,9.612 -3.26,28.233 0,54.966 -6.224,83.199 -1.779,4.806 -6.224,11.113 -4.742,17.421 1.482,3.004 4.742,4.806 6.224,7.81 1.482,18.922 -2.668,37.545 1.482,56.767 2.075,9.312 15.71,23.428 23.416,12.615 16.895,-17.42 -7.706,-42.65 4.446,-64.577 32.901,-1.502 66.988,-14.116 77.658,-45.654 6.521,-18.923 -6.224,-40.849 -21.637,-51.962 -21.638,-15.619 -46.536,-30.037 -72.916,-25.231 M 481.228,200.824 c 22.741,-9.071 11.343,-32.95 11.343,-54.821 V -1.372 c 0,-35.398 -0.835,-62.838 -11.451,-62.838 -10.617,0 -21.852,9.127 -19.483,29.013 2.37,19.887 3.466,9.821 5.894,46.608 2.428,36.786 0,69.327 0,94.316 0,24.989 -36.01,95.097 13.697,95.097 M 683.247,35.195 c 21.638,3.004 53.649,-11.113 54.242,-31.538 0.889,-21.926 -26.38,-34.541 -46.535,-36.043 -7.462,21.23 -7.699,44.15 -7.706,65.488 z" /></g></g></g></g></svg>
